<svg xmlns="http://www.w3.org/2000/svg" width="960" height="240" viewBox="0 0 960 240" role="img" aria-labelledby="title desc">
  <title id="title">WPAdverts ARMember</title>
  <desc id="desc">A protected classified listing card beside the WPAdverts ARMember name.</desc>
  <defs>
    <linearGradient id="logo-bg" x1="28" y1="24" x2="212" y2="216" gradientUnits="userSpaceOnUse">
      <stop stop-color="#ff7a45"/>
      <stop offset="1" stop-color="#0f7ac9"/>
    </linearGradient>
    <linearGradient id="logo-paper" x1="54" y1="54" x2="188" y2="192" gradientUnits="userSpaceOnUse">
      <stop stop-color="#fff"/>
      <stop offset="1" stop-color="#eaf2f8"/>
    </linearGradient>
  </defs>
  <rect x="20" y="20" width="200" height="200" rx="46" fill="url(#logo-bg)"/>
  <rect x="40" y="40" width="160" height="160" rx="28" fill="url(#logo-paper)"/>
  <rect x="40" y="40" width="160" height="40" rx="28" fill="#071c4d"/>
  <rect x="40" y="60" width="160" height="20" fill="#071c4d"/>
  <circle cx="64" cy="60" r="5" fill="#ffd3c2"/>
  <circle cx="81" cy="60" r="5" fill="#ffe7a6"/>
  <circle cx="98" cy="60" r="5" fill="#87e6c1"/>
  <rect x="59" y="100" width="62" height="12" rx="6" fill="#73bdf2"/>
  <rect x="59" y="122" width="84" height="9" rx="4.5" fill="#b9c9d6"/>
  <rect x="59" y="139" width="68" height="9" rx="4.5" fill="#b9c9d6"/>
  <path d="M155 96 187 108v31c0 24-13 43-32 52-18-9-32-28-32-52v-31l32-12Z" fill="#071c4d"/>
  <circle cx="155" cy="130" r="12" fill="#fff"/>
  <path d="M135 165c3-15 10-23 20-23 9 0 17 8 20 23" fill="#fff"/>
  <path d="m144 169 8 8 17-21" fill="none" stroke="#f26c1f" stroke-width="7" stroke-linecap="round" stroke-linejoin="round"/>
  <text x="262" y="139" fill="#071c4d" font-family="Verdana, Arial, sans-serif" font-size="42" font-weight="700">WPAdverts_ARMember</text>
</svg>
